<svg width="640" height="258" viewBox="0 0 640 258" fill="none" xmlns="http://www.w3.org/2000/svg">
<path d="M73.264 62.232C73.392 62.232 73.456 62.36 73.456 62.616C73.456 62.872 73.392 63 73.264 63H63.408C62.8534 63 62.3414 62.8293 61.872 62.488C61.4454 62.1467 60.6774 61.272 59.568 59.864C58.4587 58.4133 56.6454 55.8747 54.128 52.248L52.4 49.816C50.9067 47.64 49.7974 46.1253 49.072 45.272C48.3467 44.376 47.5787 43.7573 46.768 43.416C46 43.032 44.976 42.84 43.696 42.84V57.816C43.696 59.096 43.8027 60.056 44.016 60.696C44.272 61.2933 44.7414 61.6987 45.424 61.912C46.1067 62.1253 47.1734 62.232 48.624 62.232C48.752 62.232 48.816 62.36 48.816 62.616C48.816 62.872 48.752 63 48.624 63C47.1307 63 45.936 62.9787 45.04 62.936L39.728 62.872L35.056 62.936C34.2027 62.9787 33.0507 63 31.6 63C31.472 63 31.408 62.872 31.408 62.616C31.408 62.36 31.472 62.232 31.6 62.232C33.0507 62.232 34.1174 62.1253 34.8 61.912C35.4827 61.6987 35.952 61.2933 36.208 60.696C36.464 60.056 36.592 59.096 36.592 57.816V28.184C36.592 26.904 36.464 25.9653 36.208 25.368C35.952 24.7707 35.4827 24.3653 34.8 24.152C34.16 23.896 33.1147 23.768 31.664 23.768C31.536 23.768 31.472 23.64 31.472 23.384C31.472 23.128 31.536 23 31.664 23L35.056 23.064C37.0187 23.1493 38.576 23.192 39.728 23.192C41.1787 23.192 42.9707 23.1493 45.104 23.064L48.624 23C48.752 23 48.816 23.128 48.816 23.384C48.816 23.64 48.752 23.768 48.624 23.768C47.216 23.768 46.1707 23.896 45.488 24.152C44.8054 24.408 44.336 24.856 44.08 25.496C43.824 26.0933 43.696 27.032 43.696 28.312V41.752C44.848 41.7093 46.2987 41.688 48.048 41.688L54.768 32.472C56.5174 30.04 57.392 28.0133 57.392 26.392C57.392 25.5813 57.1574 24.9413 56.688 24.472C56.2187 24.0027 55.5787 23.768 54.768 23.768C54.6827 23.768 54.64 23.64 54.64 23.384C54.64 23.128 54.6827 23 54.768 23L57.712 23.064C59.5894 23.1493 61.2534 23.192 62.704 23.192C64.368 23.192 66.096 23.1493 67.888 23.064L70.64 23C70.768 23 70.832 23.128 70.832 23.384C70.832 23.64 70.768 23.768 70.64 23.768C68.7627 23.768 66.6507 24.4507 64.304 25.816C61.9574 27.1813 59.9734 28.888 58.352 30.936L49.648 41.752C51.312 41.8373 52.6774 42.1573 53.744 42.712C54.8107 43.224 55.856 44.056 56.88 45.208C57.9467 46.36 59.44 48.28 61.36 50.968L62.512 52.568C64.304 55.0427 65.6907 56.8987 66.672 58.136C67.696 59.3733 68.7414 60.3547 69.808 61.08C70.8747 61.8053 72.0267 62.1893 73.264 62.232ZM118.768 62.232C118.896 62.232 118.96 62.36 118.96 62.616C118.96 62.872 118.896 63 118.768 63C117.274 63 116.08 62.9787 115.184 62.936L110.256 62.872L104.496 62.936C103.728 62.9787 102.682 63 101.36 63C101.232 63 101.168 62.872 101.168 62.616C101.168 62.36 101.232 62.232 101.36 62.232C102.938 62.232 104.09 62.1253 104.816 61.912C105.541 61.6987 106.032 61.2933 106.288 60.696C106.544 60.0987 106.672 59.1387 106.672 57.816V33.56L86.7675 54.872V57.816C86.7675 59.096 86.8955 60.056 87.1515 60.696C87.4075 61.2933 87.8982 61.6987 88.6235 61.912C89.3489 62.1253 90.5009 62.232 92.0795 62.232C92.1649 62.232 92.2075 62.36 92.2075 62.616C92.2075 62.872 92.1649 63 92.0795 63C90.5862 63 89.3915 62.9787 88.4955 62.936L82.9275 62.872L78.1275 62.936C77.2742 62.9787 76.1009 63 74.6075 63C74.5222 63 74.4795 62.872 74.4795 62.616C74.4795 62.36 74.5222 62.232 74.6075 62.232C76.1009 62.232 77.1889 62.1253 77.8715 61.912C78.5542 61.6987 79.0235 61.2933 79.2795 60.696C79.5355 60.056 79.6635 59.096 79.6635 57.816V28.184C79.6635 26.904 79.5355 25.9653 79.2795 25.368C79.0235 24.7707 78.5542 24.3653 77.8715 24.152C77.2315 23.896 76.1862 23.768 74.7355 23.768C74.6075 23.768 74.5435 23.64 74.5435 23.384C74.5435 23.128 74.6075 23 74.7355 23L78.1915 23.064C80.1542 23.1493 81.7329 23.192 82.9275 23.192C84.5489 23.192 86.4262 23.1493 88.5595 23.064L92.0795 23C92.1649 23 92.2075 23.128 92.2075 23.384C92.2075 23.64 92.1649 23.768 92.0795 23.768C90.5435 23.768 89.4129 23.896 88.6875 24.152C87.9622 24.408 87.4502 24.856 87.1515 25.496C86.8955 26.0933 86.7675 27.032 86.7675 28.312V52.248L106.672 31V28.312C106.672 27.032 106.544 26.0933 106.288 25.496C106.032 24.856 105.541 24.408 104.816 24.152C104.09 23.896 102.938 23.768 101.36 23.768C101.232 23.768 101.168 23.64 101.168 23.384C101.168 23.128 101.232 23 101.36 23L104.496 23.064C106.629 23.1493 108.549 23.192 110.256 23.192C111.408 23.192 113.05 23.1493 115.184 23.064L118.768 23C118.896 23 118.96 23.128 118.96 23.384C118.96 23.64 118.896 23.768 118.768 23.768C117.317 23.768 116.25 23.896 115.568 24.152C114.885 24.3653 114.416 24.7707 114.16 25.368C113.904 25.9653 113.776 26.904 113.776 28.184V57.816C113.776 59.096 113.904 60.056 114.16 60.696C114.416 61.2933 114.885 61.6987 115.568 61.912C116.25 62.1253 117.317 62.232 118.768 62.232ZM126.893 18.008C125.783 18.008 124.909 17.7093 124.269 17.112C123.671 16.472 123.373 15.5973 123.373 14.488C123.373 13.464 123.693 12.6533 124.333 12.056C124.973 11.4587 125.826 11.16 126.893 11.16C127.959 11.16 128.791 11.4587 129.389 12.056C129.986 12.6533 130.285 13.464 130.285 14.488C130.285 15.5973 129.986 16.472 129.389 17.112C128.791 17.7093 127.959 18.008 126.893 18.008ZM136.621 18.008C135.554 18.008 134.722 17.7093 134.125 17.112C133.527 16.472 133.229 15.5973 133.229 14.488C133.229 13.464 133.527 12.6747 134.125 12.12C134.722 11.5227 135.554 11.224 136.621 11.224C137.687 11.224 138.498 11.5227 139.053 12.12C139.65 12.6747 139.949 13.464 139.949 14.488C139.949 15.5973 139.65 16.472 139.053 17.112C138.498 17.7093 137.687 18.008 136.621 18.008ZM135.341 57.816C135.341 59.1387 135.447 60.0987 135.661 60.696C135.874 61.2933 136.279 61.6987 136.877 61.912C137.517 62.1253 138.519 62.232 139.885 62.232C140.013 62.232 140.077 62.36 140.077 62.616C140.077 62.872 140.013 63 139.885 63C138.477 63 137.367 62.9787 136.557 62.936L131.693 62.872L126.957 62.936C126.103 62.9787 124.951 63 123.501 63C123.415 63 123.373 62.872 123.373 62.616C123.373 62.36 123.415 62.232 123.501 62.232C124.866 62.232 125.869 62.1253 126.509 61.912C127.149 61.6987 127.575 61.2933 127.789 60.696C128.045 60.056 128.173 59.096 128.173 57.816V28.184C128.173 26.904 128.045 25.9653 127.789 25.368C127.575 24.7707 127.149 24.3653 126.509 24.152C125.869 23.896 124.866 23.768 123.501 23.768C123.415 23.768 123.373 23.64 123.373 23.384C123.373 23.128 123.415 23 123.501 23L126.957 23.064C128.919 23.1493 130.498 23.192 131.693 23.192C133.015 23.192 134.658 23.1493 136.621 23.064L139.885 23C140.013 23 140.077 23.128 140.077 23.384C140.077 23.64 140.013 23.768 139.885 23.768C138.562 23.768 137.581 23.896 136.941 24.152C136.301 24.408 135.874 24.856 135.661 25.496C135.447 26.0933 135.341 27.032 135.341 28.312V57.816ZM165.728 40.536C169.312 40.9627 172.149 42.1573 174.24 44.12C176.373 46.0827 177.44 48.5147 177.44 51.416C177.44 53.6347 176.8 55.64 175.52 57.432C174.24 59.224 172.469 60.6533 170.208 61.72C167.946 62.744 165.429 63.256 162.656 63.256C161.461 63.256 160.096 63.192 158.56 63.064C157.962 63.0213 157.216 62.9787 156.32 62.936C155.466 62.8933 154.506 62.872 153.44 62.872L148.768 62.936C147.914 62.9787 146.762 63 145.312 63C145.184 63 145.12 62.872 145.12 62.616C145.12 62.36 145.184 62.232 145.312 62.232C146.549 62.232 147.488 62.1253 148.128 61.912C148.768 61.656 149.216 61.2293 149.472 60.632C149.77 59.992 149.92 59.0533 149.92 57.816V28.184C149.92 26.392 149.621 25.2187 149.024 24.664C148.426 24.0667 147.21 23.768 145.376 23.768C145.29 23.768 145.248 23.64 145.248 23.384C145.248 23.128 145.29 23 145.376 23L148.768 23.064C150.73 23.1493 152.288 23.192 153.44 23.192C154.634 23.192 155.872 23.128 157.152 23C157.578 22.9573 158.218 22.9147 159.072 22.872C159.925 22.8293 160.672 22.808 161.312 22.808C165.194 22.808 168.202 23.512 170.336 24.92C172.469 26.328 173.536 28.376 173.536 31.064C173.536 33.112 172.853 34.968 171.488 36.632C170.165 38.296 168.245 39.5973 165.728 40.536ZM160.352 24.216C159.114 24.216 158.261 24.5147 157.792 25.112C157.322 25.6667 157.088 26.7333 157.088 28.312V40.472L159.648 40.536C161.866 40.536 163.573 39.704 164.768 38.04C165.962 36.376 166.56 34.2427 166.56 31.64C166.56 29.208 166.026 27.3733 164.96 26.136C163.893 24.856 162.357 24.216 160.352 24.216ZM161.568 61.656C167.157 61.656 169.952 58.7547 169.952 52.952C169.952 49.6667 169.162 47.064 167.584 45.144C166.005 43.224 163.616 42.264 160.416 42.264C159.178 42.264 158.069 42.3067 157.088 42.392V57.816C157.088 59.224 157.365 60.2267 157.92 60.824C158.474 61.3787 159.69 61.656 161.568 61.656ZM242.598 62.232C242.726 62.232 242.79 62.36 242.79 62.616C242.79 62.872 242.726 63 242.598 63C241.105 63 239.91 62.9787 239.014 62.936L234.086 62.872L228.326 62.936C227.558 62.9787 226.513 63 225.19 63C225.062 63 224.998 62.872 224.998 62.616C224.998 62.36 225.062 62.232 225.19 62.232C226.769 62.232 227.921 62.1253 228.646 61.912C229.371 61.6987 229.862 61.2933 230.118 60.696C230.374 60.0987 230.502 59.1387 230.502 57.816V43.096H209.83V57.816C209.83 59.096 209.958 60.056 210.214 60.696C210.47 61.2933 210.961 61.6987 211.686 61.912C212.411 62.1253 213.563 62.232 215.142 62.232C215.227 62.232 215.27 62.36 215.27 62.616C215.27 62.872 215.227 63 215.142 63C213.649 63 212.454 62.9787 211.558 62.936L205.99 62.872L201.19 62.936C200.337 62.9787 199.163 63 197.67 63C197.585 63 197.542 62.872 197.542 62.616C197.542 62.36 197.585 62.232 197.67 62.232C199.163 62.232 200.251 62.1253 200.934 61.912C201.617 61.6987 202.086 61.2933 202.342 60.696C202.598 60.056 202.726 59.096 202.726 57.816V28.184C202.726 26.904 202.598 25.9653 202.342 25.368C202.086 24.7707 201.617 24.3653 200.934 24.152C200.294 23.896 199.249 23.768 197.798 23.768C197.67 23.768 197.606 23.64 197.606 23.384C197.606 23.128 197.67 23 197.798 23L201.254 23.064C203.217 23.1493 204.795 23.192 205.99 23.192C207.611 23.192 209.489 23.1493 211.622 23.064L215.142 23C215.227 23 215.27 23.128 215.27 23.384C215.27 23.64 215.227 23.768 215.142 23.768C213.606 23.768 212.475 23.896 211.75 24.152C211.025 24.408 210.513 24.856 210.214 25.496C209.958 26.0933 209.83 27.032 209.83 28.312V41.304H230.502V28.312C230.502 27.032 230.374 26.0933 230.118 25.496C229.862 24.856 229.371 24.408 228.646 24.152C227.921 23.896 226.769 23.768 225.19 23.768C225.062 23.768 224.998 23.64 224.998 23.384C224.998 23.128 225.062 23 225.19 23L228.326 23.064C230.459 23.1493 232.379 23.192 234.086 23.192C235.238 23.192 236.881 23.1493 239.014 23.064L242.598 23C242.726 23 242.79 23.128 242.79 23.384C242.79 23.64 242.726 23.768 242.598 23.768C241.147 23.768 240.059 23.896 239.334 24.152C238.651 24.3653 238.182 24.7707 237.926 25.368C237.713 25.9653 237.606 26.904 237.606 28.184V57.816C237.606 59.096 237.713 60.056 237.926 60.696C238.182 61.2933 238.651 61.6987 239.334 61.912C240.017 62.1253 241.105 62.232 242.598 62.232ZM276.369 52.824C276.369 52.7387 276.454 52.696 276.625 52.696C276.753 52.696 276.86 52.7387 276.945 52.824C277.073 52.8667 277.137 52.9093 277.137 52.952C276.71 56.28 276.497 59.3093 276.497 62.04C276.497 62.3813 276.433 62.6373 276.305 62.808C276.177 62.936 275.921 63 275.537 63H247.249C247.121 63 247.057 62.872 247.057 62.616C247.057 62.36 247.121 62.232 247.249 62.232C248.614 62.232 249.596 62.1253 250.193 61.912C250.833 61.6987 251.26 61.2933 251.473 60.696C251.686 60.056 251.793 59.096 251.793 57.816V28.184C251.793 26.904 251.686 25.9653 251.473 25.368C251.26 24.7707 250.833 24.3653 250.193 24.152C249.553 23.896 248.572 23.768 247.249 23.768C247.121 23.768 247.057 23.64 247.057 23.384C247.057 23.128 247.121 23 247.249 23H274.385C274.812 23 275.025 23.192 275.025 23.576L275.153 32.088C275.153 32.1733 275.025 32.2373 274.769 32.28C274.556 32.3227 274.428 32.28 274.385 32.152C273.702 29.6773 272.55 27.8427 270.929 26.648C269.308 25.4533 267.174 24.856 264.529 24.856H262.609C261.329 24.856 260.39 25.1333 259.793 25.688C259.196 26.2427 258.897 27.096 258.897 28.248V41.304H264.209C266.684 41.304 268.582 40.8773 269.905 40.024C271.228 39.1707 271.889 37.976 271.889 36.44C271.889 36.312 271.996 36.248 272.209 36.248C272.465 36.248 272.593 36.312 272.593 36.44L272.529 42.2L272.593 45.272C272.678 46.7227 272.721 47.8747 272.721 48.728C272.721 48.8133 272.593 48.856 272.337 48.856C272.081 48.856 271.953 48.8133 271.953 48.728C271.953 46.9787 271.27 45.6133 269.905 44.632C268.582 43.608 266.662 43.096 264.145 43.096H258.897V57.56C258.897 58.7973 259.132 59.7147 259.601 60.312C260.07 60.9093 260.817 61.208 261.841 61.208H263.953C267.281 61.208 269.948 60.5253 271.953 59.16C273.958 57.7947 275.43 55.6827 276.369 52.824ZM314.266 41.496C317.85 41.752 320.751 42.7973 322.97 44.632C325.188 46.424 326.298 48.7493 326.298 51.608C326.298 53.912 325.551 56.0027 324.058 57.88C322.564 59.7147 320.559 61.1653 318.042 62.232C315.524 63.256 312.772 63.768 309.786 63.768C307.866 63.768 306.031 63.5547 304.282 63.128C302.532 62.7013 301.188 62.104 300.25 61.336C299.866 61.1227 299.631 60.952 299.546 60.824C299.46 60.6533 299.396 60.3333 299.354 59.864L298.586 51.224C298.586 51.1387 298.692 51.0747 298.906 51.032C299.162 50.9893 299.311 51.032 299.354 51.16C299.695 53.336 300.442 55.32 301.594 57.112C302.788 58.8613 304.239 60.248 305.946 61.272C307.652 62.2533 309.444 62.744 311.322 62.744C313.583 62.744 315.29 61.784 316.442 59.864C317.636 57.9013 318.234 55.512 318.234 52.696C318.234 49.24 317.316 46.6373 315.482 44.888C313.69 43.096 311.13 42.2 307.802 42.2C307.631 42.2 307.546 42.072 307.546 41.816C307.546 41.56 307.631 41.432 307.802 41.432C310.874 41.432 313.156 40.6213 314.65 39C316.186 37.3787 316.954 35.096 316.954 32.152C316.954 29.208 316.442 26.968 315.418 25.432C314.436 23.896 312.964 23.128 311.002 23.128C309.551 23.128 308.1 23.64 306.65 24.664C305.199 25.6453 303.919 27.0107 302.81 28.76C301.7 30.5093 300.868 32.472 300.314 34.648C300.271 34.776 300.143 34.8187 299.93 34.776C299.716 34.7333 299.61 34.6693 299.61 34.584L300.506 25.496C300.591 24.984 300.676 24.6427 300.762 24.472C300.847 24.3013 301.082 24.152 301.466 24.024C304.751 22.872 308.164 22.296 311.706 22.296C314.522 22.296 316.89 22.7013 318.81 23.512C320.73 24.28 322.159 25.3253 323.098 26.648C324.079 27.928 324.57 29.336 324.57 30.872C324.57 33.304 323.524 35.5013 321.434 37.464C319.343 39.4267 316.954 40.7707 314.266 41.496ZM372.504 62.232C372.888 62.232 373.101 62.2747 373.144 62.36C373.229 62.4027 373.272 62.616 373.272 63C373.272 63.6827 373.208 64.4933 373.08 65.432C372.738 68.504 372.568 71.4267 372.568 74.2C372.568 74.4133 372.44 74.52 372.184 74.52C371.928 74.52 371.8 74.4133 371.8 74.2C371.8 70.6587 370.712 67.9067 368.536 65.944C366.36 63.9813 363.245 63 359.192 63H343.064C339.181 63 336.429 63.8533 334.808 65.56C333.186 67.2667 332.376 70.1467 332.376 74.2C332.376 74.4133 332.248 74.52 331.992 74.52C331.736 74.52 331.608 74.4133 331.608 74.2C331.608 71.2987 331.48 68.9947 331.224 67.288C331.01 65.624 330.882 64.6853 330.84 64.472C330.669 63.3627 330.584 62.744 330.584 62.616C330.584 62.232 330.605 62.0187 330.648 61.976C330.733 61.8907 330.968 61.848 331.352 61.848C334.509 61.848 337.24 59.928 339.544 56.088C341.89 52.2053 343.661 47.64 344.856 42.392C346.05 37.144 346.648 32.6427 346.648 28.888C346.648 27.3093 346.05 26.072 344.856 25.176C343.661 24.2373 341.954 23.768 339.736 23.768C339.608 23.768 339.544 23.64 339.544 23.384C339.544 23.128 339.608 23 339.736 23H371.288C371.416 23 371.48 23.128 371.48 23.384C371.48 23.64 371.416 23.768 371.288 23.768C369.837 23.768 368.77 23.896 368.088 24.152C367.405 24.3653 366.936 24.7707 366.68 25.368C366.424 25.9653 366.296 26.904 366.296 28.184V57.816C366.296 59.48 366.381 60.568 366.552 61.08C366.722 61.592 367.17 61.912 367.896 62.04C368.664 62.168 370.2 62.232 372.504 62.232ZM359.192 28.312C359.192 26.9893 359.128 26.1147 359 25.688C358.914 25.2187 358.68 24.9413 358.296 24.856C357.912 24.728 357.144 24.664 355.992 24.664H352.28C351.17 24.664 350.381 24.7707 349.912 24.984C349.485 25.1973 349.186 25.5813 349.016 26.136C348.888 26.648 348.76 27.608 348.632 29.016C348.632 29.3147 348.589 29.8907 348.504 30.744C347.864 36.8027 346.712 42.7973 345.048 48.728C343.426 54.616 341.037 58.7973 337.88 61.272H355.672C355.928 61.272 356.504 61.272 357.4 61.272C358.338 61.272 358.872 61.0373 359 60.568C359.128 60.056 359.192 59.096 359.192 57.688V28.312ZM398.049 63.768C394.081 63.768 390.54 62.8507 387.425 61.016C384.353 59.1387 381.964 56.6213 380.257 53.464C378.593 50.264 377.761 46.7867 377.761 43.032C377.761 38.6373 378.87 34.8827 381.089 31.768C383.308 28.6107 386.145 26.2427 389.601 24.664C393.1 23.0853 396.662 22.296 400.289 22.296C404.342 22.296 407.905 23.256 410.977 25.176C414.049 27.0533 416.396 29.5493 418.017 32.664C419.681 35.7787 420.513 39.0853 420.513 42.584C420.513 46.4667 419.489 50.0293 417.441 53.272C415.393 56.5147 412.641 59.0747 409.185 60.952C405.772 62.8293 402.06 63.768 398.049 63.768ZM400.161 62.168C402.55 62.168 404.684 61.4853 406.561 60.12C408.481 58.712 409.974 56.6853 411.041 54.04C412.108 51.352 412.641 48.152 412.641 44.44C412.641 40.5147 412.044 37.016 410.849 33.944C409.654 30.8293 407.926 28.3973 405.665 26.648C403.404 24.8987 400.758 24.024 397.729 24.024C393.846 24.024 390.86 25.496 388.769 28.44C386.678 31.3413 385.633 35.416 385.633 40.664C385.633 44.8027 386.252 48.5147 387.489 51.8C388.769 55.0427 390.497 57.5813 392.673 59.416C394.892 61.2507 397.388 62.168 400.161 62.168ZM424.913 63.768C423.718 63.768 422.758 63.4907 422.033 62.936C421.35 62.3813 421.009 61.5707 421.009 60.504C421.009 59.48 421.308 58.7333 421.905 58.264C422.545 57.7947 423.334 57.56 424.273 57.56H425.617C427.921 57.56 429.884 56.152 431.505 53.336C433.169 50.52 434.406 46.9787 435.217 42.712C436.028 38.4027 436.433 34.0933 436.433 29.784C436.433 27.5653 436.006 26.008 435.153 25.112C434.3 24.216 432.636 23.768 430.161 23.768C430.033 23.768 429.969 23.64 429.969 23.384C429.969 23.128 430.033 23 430.161 23H462.545C462.63 23 462.673 23.128 462.673 23.384C462.673 23.64 462.63 23.768 462.545 23.768C461.094 23.768 460.006 23.896 459.281 24.152C458.598 24.3653 458.129 24.7707 457.873 25.368C457.66 25.9653 457.553 26.904 457.553 28.184V57.816C457.553 59.096 457.66 60.056 457.873 60.696C458.129 61.2933 458.598 61.6987 459.281 61.912C459.964 62.1253 461.052 62.232 462.545 62.232C462.63 62.232 462.673 62.36 462.673 62.616C462.673 62.872 462.63 63 462.545 63C461.094 63 459.942 62.9787 459.089 62.936L454.353 62.872L449.105 62.936C448.252 62.9787 447.036 63 445.457 63C445.372 63 445.329 62.872 445.329 62.616C445.329 62.36 445.372 62.232 445.457 62.232C446.95 62.232 448.017 62.1253 448.657 61.912C449.34 61.6987 449.788 61.2933 450.001 60.696C450.257 60.0987 450.385 59.1387 450.385 57.816V28.952C450.385 27.5013 450.321 26.5413 450.193 26.072C450.108 25.6027 449.873 25.304 449.489 25.176C449.105 25.048 448.337 24.984 447.185 24.984H442.961C441.681 24.984 440.721 25.0907 440.081 25.304C439.441 25.5173 438.972 25.9653 438.673 26.648C438.417 27.288 438.289 28.3333 438.289 29.784C438.289 34.3067 437.905 39.1493 437.137 44.312C436.412 49.4747 435.046 54.0187 433.041 57.944C431.078 61.8267 428.369 63.768 424.913 63.768ZM510.451 62.232C510.664 62.232 510.771 62.36 510.771 62.616C510.771 62.872 510.664 63 510.451 63C509.597 63 508.275 62.9573 506.483 62.872C504.605 62.7867 503.261 62.744 502.451 62.744C501.384 62.744 500.083 62.7867 498.547 62.872C497.096 62.9573 495.944 63 495.091 63C494.92 63 494.835 62.872 494.835 62.616C494.835 62.36 494.92 62.232 495.091 62.232C496.2 62.232 496.989 62.1253 497.459 61.912C497.971 61.656 498.227 61.2293 498.227 60.632C498.227 59.9067 497.8 58.6907 496.947 56.984L490.291 43.864H478.899L474.355 53.912C473.8 55.1493 473.523 56.3013 473.523 57.368C473.523 58.904 474.056 60.0987 475.123 60.952C476.232 61.8053 477.704 62.232 479.539 62.232C479.752 62.232 479.859 62.36 479.859 62.616C479.859 62.872 479.752 63 479.539 63C478.771 63 477.661 62.9573 476.211 62.872C474.589 62.7867 473.181 62.744 471.987 62.744C470.835 62.744 469.448 62.7867 467.827 62.872C466.376 62.9573 465.203 63 464.307 63C464.136 63 464.051 62.872 464.051 62.616C464.051 62.36 464.136 62.232 464.307 62.232C465.501 62.232 466.504 61.9973 467.315 61.528C468.125 61.016 468.936 60.1413 469.747 58.904C470.557 57.624 471.517 55.7467 472.627 53.272L486.515 22.744C486.6 22.616 486.792 22.552 487.091 22.552C487.432 22.552 487.624 22.616 487.667 22.744L503.667 54.232C505.16 57.2613 506.397 59.352 507.379 60.504C508.36 61.656 509.384 62.232 510.451 62.232ZM479.731 42.072H489.395L484.275 31.96L479.731 42.072ZM520.083 24.472C515.006 24.472 511.358 27.7787 509.139 34.392C509.096 34.52 508.968 34.584 508.755 34.584C508.542 34.5413 508.435 34.456 508.435 34.328C508.606 32.6213 508.798 30.424 509.011 27.736C509.224 25.0053 509.331 22.9573 509.331 21.592C509.331 21.3787 509.438 21.272 509.651 21.272C509.907 21.272 510.035 21.3787 510.035 21.592C510.035 22.5307 511.251 23 513.683 23C517.352 23.128 521.64 23.192 526.547 23.192C529.064 23.192 531.731 23.1493 534.547 23.064L538.899 23C540.52 23 541.694 22.8933 542.419 22.68C543.187 22.4667 543.678 22.04 543.891 21.4C543.934 21.2293 544.062 21.144 544.275 21.144C544.531 21.144 544.659 21.2293 544.659 21.4C544.531 22.68 544.382 24.728 544.211 27.544C544.083 30.36 544.019 32.6213 544.019 34.328C544.019 34.456 543.912 34.52 543.699 34.52C543.486 34.52 543.358 34.456 543.315 34.328C542.675 31.0427 541.48 28.5893 539.731 26.968C537.982 25.304 535.827 24.472 533.267 24.472C532.03 24.472 531.198 24.7493 530.771 25.304C530.387 25.816 530.195 26.8187 530.195 28.312V57.816C530.195 59.1387 530.323 60.0987 530.579 60.696C530.835 61.2933 531.326 61.6987 532.051 61.912C532.776 62.1253 533.928 62.232 535.507 62.232C535.635 62.232 535.699 62.36 535.699 62.616C535.699 62.872 535.635 63 535.507 63C533.971 63 532.755 62.9787 531.859 62.936L526.547 62.872L521.363 62.936C520.467 62.9787 519.23 63 517.651 63C517.523 63 517.459 62.872 517.459 62.616C517.459 62.36 517.523 62.232 517.651 62.232C519.187 62.232 520.318 62.1253 521.043 61.912C521.811 61.6987 522.323 61.2933 522.579 60.696C522.878 60.056 523.027 59.096 523.027 57.816V28.184C523.027 26.7333 522.835 25.752 522.451 25.24C522.067 24.728 521.278 24.472 520.083 24.472ZM593.08 62.232C593.208 62.232 593.272 62.36 593.272 62.616C593.272 62.872 593.208 63 593.08 63C591.587 63 590.392 62.9787 589.496 62.936L584.568 62.872L578.808 62.936C578.04 62.9787 576.995 63 575.672 63C575.544 63 575.48 62.872 575.48 62.616C575.48 62.36 575.544 62.232 575.672 62.232C577.251 62.232 578.403 62.1253 579.128 61.912C579.853 61.6987 580.344 61.2933 580.6 60.696C580.856 60.0987 580.984 59.1387 580.984 57.816V33.56L561.08 54.872V57.816C561.08 59.096 561.208 60.056 561.464 60.696C561.72 61.2933 562.211 61.6987 562.936 61.912C563.661 62.1253 564.813 62.232 566.392 62.232C566.477 62.232 566.52 62.36 566.52 62.616C566.52 62.872 566.477 63 566.392 63C564.899 63 563.704 62.9787 562.808 62.936L557.24 62.872L552.44 62.936C551.587 62.9787 550.413 63 548.92 63C548.835 63 548.792 62.872 548.792 62.616C548.792 62.36 548.835 62.232 548.92 62.232C550.413 62.232 551.501 62.1253 552.184 61.912C552.867 61.6987 553.336 61.2933 553.592 60.696C553.848 60.056 553.976 59.096 553.976 57.816V28.184C553.976 26.904 553.848 25.9653 553.592 25.368C553.336 24.7707 552.867 24.3653 552.184 24.152C551.544 23.896 550.499 23.768 549.048 23.768C548.92 23.768 548.856 23.64 548.856 23.384C548.856 23.128 548.92 23 549.048 23L552.504 23.064C554.467 23.1493 556.045 23.192 557.24 23.192C558.861 23.192 560.739 23.1493 562.872 23.064L566.392 23C566.477 23 566.52 23.128 566.52 23.384C566.52 23.64 566.477 23.768 566.392 23.768C564.856 23.768 563.725 23.896 563 24.152C562.275 24.408 561.763 24.856 561.464 25.496C561.208 26.0933 561.08 27.032 561.08 28.312V52.248L580.984 31V28.312C580.984 27.032 580.856 26.0933 580.6 25.496C580.344 24.856 579.853 24.408 579.128 24.152C578.403 23.896 577.251 23.768 575.672 23.768C575.544 23.768 575.48 23.64 575.48 23.384C575.48 23.128 575.544 23 575.672 23L578.808 23.064C580.941 23.1493 582.861 23.192 584.568 23.192C585.72 23.192 587.363 23.1493 589.496 23.064L593.08 23C593.208 23 593.272 23.128 593.272 23.384C593.272 23.64 593.208 23.768 593.08 23.768C591.629 23.768 590.563 23.896 589.88 24.152C589.197 24.3653 588.728 24.7707 588.472 25.368C588.216 25.9653 588.088 26.904 588.088 28.184V57.816C588.088 59.096 588.216 60.056 588.472 60.696C588.728 61.2933 589.197 61.6987 589.88 61.912C590.563 62.1253 591.629 62.232 593.08 62.232ZM599.029 23.64C598.944 23.3413 599.392 23.128 600.373 23C601.354 22.8293 602.4 22.744 603.509 22.744C604.618 22.744 605.664 22.8293 606.645 23C607.669 23.128 608.138 23.3413 608.053 23.64C607.114 26.8827 606.41 30.424 605.941 34.264C605.514 38.104 605.066 42.968 604.597 48.856C604.597 49.2827 604.554 49.9653 604.469 50.904C604.469 50.9893 604.341 51.0747 604.085 51.16C603.872 51.2027 603.637 51.224 603.381 51.224C603.125 51.224 602.869 51.2027 602.613 51.16C602.4 51.0747 602.293 50.9893 602.293 50.904C601.909 44.5893 601.504 39.3627 601.077 35.224C600.65 31.0427 599.968 27.1813 599.029 23.64ZM603.125 63.704C601.93 63.704 600.97 63.3627 600.245 62.68C599.562 61.9547 599.221 60.9947 599.221 59.8C599.221 58.6907 599.562 57.7947 600.245 57.112C600.97 56.4293 601.93 56.088 603.125 56.088C604.32 56.088 605.237 56.4293 605.877 57.112C606.56 57.752 606.901 58.648 606.901 59.8C606.901 61.0373 606.56 61.9973 605.877 62.68C605.237 63.3627 604.32 63.704 603.125 63.704ZM83.312 148.232C83.3974 148.232 83.44 148.36 83.44 148.616C83.44 148.872 83.3974 149 83.312 149C81.8614 149 80.7094 148.979 79.856 148.936L75.12 148.872L70.32 148.936C69.5094 148.979 68.4 149 66.992 149C66.864 149 66.8 148.872 66.8 148.616C66.8 148.36 66.864 148.232 66.992 148.232C68.784 148.232 70 148.019 70.64 147.592C71.28 147.165 71.6 146.269 71.6 144.904L71.536 143.816L70.192 117.64L57.008 148.552C56.9227 148.723 56.752 148.808 56.496 148.808C56.24 148.808 56.0694 148.723 55.984 148.552L39.792 117.768L39.28 140.872C39.2374 143.176 39.6854 144.989 40.624 146.312C41.6054 147.592 42.9707 148.232 44.72 148.232C44.848 148.232 44.912 148.36 44.912 148.616C44.912 148.872 44.848 149 44.72 149C43.568 149 42.672 148.979 42.032 148.936L38.512 148.872L34.48 148.936C33.7974 148.979 32.88 149 31.728 149C31.6 149 31.536 148.872 31.536 148.616C31.536 148.36 31.6 148.232 31.728 148.232C33.4774 148.232 34.864 147.571 35.888 146.248C36.912 144.925 37.4454 143.133 37.488 140.872L38.064 114.376L38 114.312C37.1467 112.733 36.2507 111.581 35.312 110.856C34.416 110.131 33.3707 109.768 32.176 109.768C32.048 109.768 31.984 109.64 31.984 109.384C31.984 109.128 32.048 109 32.176 109L35.184 109.064C35.7814 109.107 36.5494 109.128 37.488 109.128L40.88 109.064C41.264 109.021 41.7547 109 42.352 109C42.9067 109 43.3334 109.192 43.632 109.576C43.9307 109.96 44.4854 110.877 45.296 112.328L59.248 138.504L71.408 110.6C71.664 110.003 71.92 109.597 72.176 109.384C72.4747 109.128 72.8587 109 73.328 109C73.712 109 74.1387 109.021 74.608 109.064C75.12 109.107 75.696 109.128 76.336 109.128L80.112 109.064C80.7094 109.021 81.5627 109 82.672 109C82.8 109 82.864 109.128 82.864 109.384C82.864 109.64 82.8 109.768 82.672 109.768C80.6667 109.768 79.216 110.173 78.32 110.984C77.424 111.795 77.0187 113.053 77.104 114.76L78.64 143.816C78.7254 145.139 78.8747 146.099 79.088 146.696C79.344 147.293 79.7707 147.699 80.368 147.912C81.008 148.125 81.9894 148.232 83.312 148.232ZM130.955 148.232C131.083 148.232 131.147 148.36 131.147 148.616C131.147 148.872 131.083 149 130.955 149C129.462 149 128.267 148.979 127.371 148.936L122.443 148.872L116.683 148.936C115.915 148.979 114.87 149 113.547 149C113.419 149 113.355 148.872 113.355 148.616C113.355 148.36 113.419 148.232 113.547 148.232C115.126 148.232 116.278 148.125 117.003 147.912C117.728 147.699 118.219 147.293 118.475 146.696C118.731 146.099 118.859 145.139 118.859 143.816V119.56L98.955 140.872V143.816C98.955 145.096 99.083 146.056 99.339 146.696C99.595 147.293 100.086 147.699 100.811 147.912C101.536 148.125 102.688 148.232 104.267 148.232C104.352 148.232 104.395 148.36 104.395 148.616C104.395 148.872 104.352 149 104.267 149C102.774 149 101.579 148.979 100.683 148.936L95.115 148.872L90.315 148.936C89.4617 148.979 88.2884 149 86.795 149C86.7097 149 86.667 148.872 86.667 148.616C86.667 148.36 86.7097 148.232 86.795 148.232C88.2884 148.232 89.3764 148.125 90.059 147.912C90.7417 147.699 91.211 147.293 91.467 146.696C91.723 146.056 91.851 145.096 91.851 143.816V114.184C91.851 112.904 91.723 111.965 91.467 111.368C91.211 110.771 90.7417 110.365 90.059 110.152C89.419 109.896 88.3737 109.768 86.923 109.768C86.795 109.768 86.731 109.64 86.731 109.384C86.731 109.128 86.795 109 86.923 109L90.379 109.064C92.3417 109.149 93.9204 109.192 95.115 109.192C96.7364 109.192 98.6137 109.149 100.747 109.064L104.267 109C104.352 109 104.395 109.128 104.395 109.384C104.395 109.64 104.352 109.768 104.267 109.768C102.731 109.768 101.6 109.896 100.875 110.152C100.15 110.408 99.6377 110.856 99.339 111.496C99.083 112.093 98.955 113.032 98.955 114.312V138.248L118.859 117V114.312C118.859 113.032 118.731 112.093 118.475 111.496C118.219 110.856 117.728 110.408 117.003 110.152C116.278 109.896 115.126 109.768 113.547 109.768C113.419 109.768 113.355 109.64 113.355 109.384C113.355 109.128 113.419 109 113.547 109L116.683 109.064C118.816 109.149 120.736 109.192 122.443 109.192C123.595 109.192 125.238 109.149 127.371 109.064L130.955 109C131.083 109 131.147 109.128 131.147 109.384C131.147 109.64 131.083 109.768 130.955 109.768C129.504 109.768 128.438 109.896 127.755 110.152C127.072 110.365 126.603 110.771 126.347 111.368C126.091 111.965 125.963 112.904 125.963 114.184V143.816C125.963 145.096 126.091 146.056 126.347 146.696C126.603 147.293 127.072 147.699 127.755 147.912C128.438 148.125 129.504 148.232 130.955 148.232ZM194.016 148.232C194.144 148.232 194.208 148.36 194.208 148.616C194.208 148.872 194.144 149 194.016 149C192.565 149 191.413 148.979 190.56 148.936L185.888 148.872L180.576 148.936C179.68 148.979 178.485 149 176.992 149C176.864 149 176.8 148.872 176.8 148.616C176.8 148.36 176.864 148.232 176.992 148.232C178.443 148.232 179.509 148.125 180.192 147.912C180.875 147.699 181.323 147.293 181.536 146.696C181.792 146.056 181.92 145.096 181.92 143.816V114.952C181.92 113.501 181.856 112.541 181.728 112.072C181.643 111.603 181.408 111.304 181.024 111.176C180.64 111.048 179.872 110.984 178.72 110.984H165.6C164.32 110.984 163.467 111.048 163.04 111.176C162.613 111.304 162.336 111.603 162.208 112.072C162.123 112.541 162.08 113.501 162.08 114.952V143.816C162.08 145.139 162.187 146.099 162.4 146.696C162.656 147.293 163.104 147.699 163.744 147.912C164.427 148.125 165.515 148.232 167.008 148.232C167.136 148.232 167.2 148.36 167.2 148.616C167.2 148.872 167.136 149 167.008 149C165.515 149 164.32 148.979 163.424 148.936L158.112 148.872L153.376 148.936C152.523 148.979 151.371 149 149.92 149C149.835 149 149.792 148.872 149.792 148.616C149.792 148.36 149.835 148.232 149.92 148.232C151.413 148.232 152.501 148.125 153.184 147.912C153.867 147.699 154.336 147.293 154.592 146.696C154.848 146.056 154.976 145.096 154.976 143.816V114.952C154.976 113.032 154.656 111.688 154.016 110.92C153.376 110.152 152.053 109.768 150.048 109.768C149.92 109.768 149.856 109.64 149.856 109.384C149.856 109.128 149.92 109 150.048 109C151.499 109 152.907 109.021 154.272 109.064C159.989 109.149 165.984 109.192 172.256 109.192C177.931 109.192 184.48 109.128 191.904 109H194.016C194.144 109 194.208 109.128 194.208 109.384C194.208 109.64 194.144 109.768 194.016 109.768C192.011 109.768 190.667 110.152 189.984 110.92C189.344 111.688 189.024 113.032 189.024 114.952V143.816C189.024 145.096 189.152 146.056 189.408 146.696C189.664 147.293 190.133 147.699 190.816 147.912C191.499 148.125 192.565 148.232 194.016 148.232ZM227.807 138.824C227.807 138.739 227.892 138.696 228.063 138.696C228.191 138.696 228.297 138.739 228.383 138.824C228.511 138.867 228.575 138.909 228.575 138.952C228.148 142.28 227.935 145.309 227.935 148.04C227.935 148.381 227.871 148.637 227.743 148.808C227.615 148.936 227.359 149 226.975 149H198.687C198.559 149 198.495 148.872 198.495 148.616C198.495 148.36 198.559 148.232 198.687 148.232C200.052 148.232 201.033 148.125 201.631 147.912C202.271 147.699 202.697 147.293 202.911 146.696C203.124 146.056 203.231 145.096 203.231 143.816V114.184C203.231 112.904 203.124 111.965 202.911 111.368C202.697 110.771 202.271 110.365 201.631 110.152C200.991 109.896 200.009 109.768 198.687 109.768C198.559 109.768 198.495 109.64 198.495 109.384C198.495 109.128 198.559 109 198.687 109H225.823C226.249 109 226.463 109.192 226.463 109.576L226.591 118.088C226.591 118.173 226.463 118.237 226.207 118.28C225.993 118.323 225.865 118.28 225.823 118.152C225.14 115.677 223.988 113.843 222.367 112.648C220.745 111.453 218.612 110.856 215.967 110.856H214.047C212.767 110.856 211.828 111.133 211.231 111.688C210.633 112.243 210.335 113.096 210.335 114.248V127.304H215.647C218.121 127.304 220.02 126.877 221.343 126.024C222.665 125.171 223.327 123.976 223.327 122.44C223.327 122.312 223.433 122.248 223.647 122.248C223.903 122.248 224.031 122.312 224.031 122.44L223.967 128.2L224.031 131.272C224.116 132.723 224.159 133.875 224.159 134.728C224.159 134.813 224.031 134.856 223.775 134.856C223.519 134.856 223.391 134.813 223.391 134.728C223.391 132.979 222.708 131.613 221.343 130.632C220.02 129.608 218.1 129.096 215.583 129.096H210.335V143.56C210.335 144.797 210.569 145.715 211.039 146.312C211.508 146.909 212.255 147.208 213.279 147.208H215.391C218.719 147.208 221.385 146.525 223.391 145.16C225.396 143.795 226.868 141.683 227.807 138.824ZM245.199 143.56C245.199 144.925 245.348 145.928 245.647 146.568C245.946 147.165 246.5 147.592 247.311 147.848C248.164 148.104 249.508 148.232 251.343 148.232C251.471 148.232 251.535 148.36 251.535 148.616C251.535 148.872 251.471 149 251.343 149C249.594 149 248.228 148.979 247.247 148.936L241.679 148.872L237.007 148.936C236.154 148.979 235.002 149 233.551 149C233.423 149 233.359 148.872 233.359 148.616C233.359 148.36 233.423 148.232 233.551 148.232C234.916 148.232 235.898 148.125 236.495 147.912C237.135 147.699 237.562 147.293 237.775 146.696C237.988 146.056 238.095 145.096 238.095 143.816V114.184C238.095 112.904 237.988 111.965 237.775 111.368C237.562 110.771 237.135 110.365 236.495 110.152C235.855 109.896 234.874 109.768 233.551 109.768C233.423 109.768 233.359 109.64 233.359 109.384C233.359 109.128 233.423 109 233.551 109L236.943 109.064C238.906 109.149 240.463 109.192 241.615 109.192C242.639 109.192 243.855 109.128 245.263 109C245.818 108.957 246.522 108.915 247.375 108.872C248.228 108.829 249.21 108.808 250.319 108.808C254.671 108.808 258.106 109.725 260.623 111.56C263.14 113.352 264.399 116.147 264.399 119.944C264.399 122.589 263.716 124.829 262.351 126.664C260.986 128.499 259.215 129.885 257.039 130.824C254.906 131.763 252.708 132.232 250.447 132.232C249.295 132.232 248.292 132.125 247.439 131.912C247.354 131.912 247.311 131.805 247.311 131.592C247.311 131.464 247.332 131.336 247.375 131.208C247.46 131.08 247.546 131.037 247.631 131.08C248.271 131.251 248.996 131.336 249.807 131.336C251.77 131.336 253.391 130.419 254.671 128.584C255.994 126.749 256.655 124.147 256.655 120.776C256.655 117.405 255.93 114.803 254.479 112.968C253.071 111.133 251.002 110.216 248.271 110.216C247.076 110.216 246.266 110.493 245.839 111.048C245.412 111.603 245.199 112.691 245.199 114.312V143.56ZM298.494 138.824C298.494 138.739 298.579 138.696 298.75 138.696C298.878 138.696 298.985 138.739 299.07 138.824C299.198 138.867 299.262 138.909 299.262 138.952C298.835 142.28 298.622 145.309 298.622 148.04C298.622 148.381 298.558 148.637 298.43 148.808C298.302 148.936 298.046 149 297.662 149H269.374C269.246 149 269.182 148.872 269.182 148.616C269.182 148.36 269.246 148.232 269.374 148.232C270.739 148.232 271.721 148.125 272.318 147.912C272.958 147.699 273.385 147.293 273.598 146.696C273.811 146.056 273.918 145.096 273.918 143.816V114.184C273.918 112.904 273.811 111.965 273.598 111.368C273.385 110.771 272.958 110.365 272.318 110.152C271.678 109.896 270.697 109.768 269.374 109.768C269.246 109.768 269.182 109.64 269.182 109.384C269.182 109.128 269.246 109 269.374 109H296.51C296.937 109 297.15 109.192 297.15 109.576L297.278 118.088C297.278 118.173 297.15 118.237 296.894 118.28C296.681 118.323 296.553 118.28 296.51 118.152C295.827 115.677 294.675 113.843 293.054 112.648C291.433 111.453 289.299 110.856 286.654 110.856H284.734C283.454 110.856 282.515 111.133 281.918 111.688C281.321 112.243 281.022 113.096 281.022 114.248V127.304H286.334C288.809 127.304 290.707 126.877 292.03 126.024C293.353 125.171 294.014 123.976 294.014 122.44C294.014 122.312 294.121 122.248 294.334 122.248C294.59 122.248 294.718 122.312 294.718 122.44L294.654 128.2L294.718 131.272C294.803 132.723 294.846 133.875 294.846 134.728C294.846 134.813 294.718 134.856 294.462 134.856C294.206 134.856 294.078 134.813 294.078 134.728C294.078 132.979 293.395 131.613 292.03 130.632C290.707 129.608 288.787 129.096 286.27 129.096H281.022V143.56C281.022 144.797 281.257 145.715 281.726 146.312C282.195 146.909 282.942 147.208 283.966 147.208H286.078C289.406 147.208 292.073 146.525 294.078 145.16C296.083 143.795 297.555 141.683 298.494 138.824ZM355.375 148.232C355.46 148.232 355.503 148.36 355.503 148.616C355.503 148.872 355.46 149 355.375 149C353.924 149 352.772 148.979 351.919 148.936L347.183 148.872L342.383 148.936C341.572 148.979 340.463 149 339.055 149C338.927 149 338.863 148.872 338.863 148.616C338.863 148.36 338.927 148.232 339.055 148.232C340.847 148.232 342.063 148.019 342.703 147.592C343.343 147.165 343.663 146.269 343.663 144.904L343.599 143.816L342.255 117.64L329.071 148.552C328.985 148.723 328.815 148.808 328.559 148.808C328.303 148.808 328.132 148.723 328.047 148.552L311.855 117.768L311.343 140.872C311.3 143.176 311.748 144.989 312.687 146.312C313.668 147.592 315.033 148.232 316.783 148.232C316.911 148.232 316.975 148.36 316.975 148.616C316.975 148.872 316.911 149 316.783 149C315.631 149 314.735 148.979 314.095 148.936L310.575 148.872L306.543 148.936C305.86 148.979 304.943 149 303.791 149C303.663 149 303.599 148.872 303.599 148.616C303.599 148.36 303.663 148.232 303.791 148.232C305.54 148.232 306.927 147.571 307.951 146.248C308.975 144.925 309.508 143.133 309.551 140.872L310.127 114.376L310.063 114.312C309.209 112.733 308.313 111.581 307.375 110.856C306.479 110.131 305.433 109.768 304.239 109.768C304.111 109.768 304.047 109.64 304.047 109.384C304.047 109.128 304.111 109 304.239 109L307.247 109.064C307.844 109.107 308.612 109.128 309.551 109.128L312.943 109.064C313.327 109.021 313.817 109 314.415 109C314.969 109 315.396 109.192 315.695 109.576C315.993 109.96 316.548 110.877 317.359 112.328L331.311 138.504L343.471 110.6C343.727 110.003 343.983 109.597 344.239 109.384C344.537 109.128 344.921 109 345.391 109C345.775 109 346.201 109.021 346.671 109.064C347.183 109.107 347.759 109.128 348.399 109.128L352.175 109.064C352.772 109.021 353.625 109 354.735 109C354.863 109 354.927 109.128 354.927 109.384C354.927 109.64 354.863 109.768 354.735 109.768C352.729 109.768 351.279 110.173 350.383 110.984C349.487 111.795 349.081 113.053 349.167 114.76L350.703 143.816C350.788 145.139 350.937 146.099 351.151 146.696C351.407 147.293 351.833 147.699 352.431 147.912C353.071 148.125 354.052 148.232 355.375 148.232ZM380.362 149.768C376.394 149.768 372.852 148.851 369.738 147.016C366.666 145.139 364.276 142.621 362.57 139.464C360.906 136.264 360.074 132.787 360.074 129.032C360.074 124.637 361.183 120.883 363.402 117.768C365.62 114.611 368.458 112.243 371.914 110.664C375.412 109.085 378.975 108.296 382.602 108.296C386.655 108.296 390.218 109.256 393.29 111.176C396.362 113.053 398.708 115.549 400.33 118.664C401.994 121.779 402.826 125.085 402.826 128.584C402.826 132.467 401.802 136.029 399.754 139.272C397.706 142.515 394.954 145.075 391.498 146.952C388.084 148.829 384.372 149.768 380.362 149.768ZM382.474 148.168C384.863 148.168 386.996 147.485 388.874 146.12C390.794 144.712 392.287 142.685 393.354 140.04C394.42 137.352 394.954 134.152 394.954 130.44C394.954 126.515 394.356 123.016 393.162 119.944C391.967 116.829 390.239 114.397 387.978 112.648C385.716 110.899 383.071 110.024 380.042 110.024C376.159 110.024 373.172 111.496 371.082 114.44C368.991 117.341 367.946 121.416 367.946 126.664C367.946 130.803 368.564 134.515 369.802 137.8C371.082 141.043 372.81 143.581 374.986 145.416C377.204 147.251 379.7 148.168 382.474 148.168ZM469.16 148.232C469.288 148.232 469.352 148.36 469.352 148.616C469.352 148.872 469.288 149 469.16 149H459.304C458.792 149 458.322 148.829 457.896 148.488C457.512 148.147 456.786 147.251 455.72 145.8C454.696 144.307 453.053 141.789 450.792 138.248C448.957 135.347 447.528 133.277 446.504 132.04C445.48 130.803 444.477 129.971 443.496 129.544C442.514 129.075 441.213 128.84 439.592 128.84V143.816C439.592 145.096 439.698 146.056 439.912 146.696C440.168 147.293 440.637 147.699 441.32 147.912C442.002 148.125 443.09 148.232 444.584 148.232C444.669 148.232 444.712 148.36 444.712 148.616C444.712 148.872 444.669 149 444.584 149C443.005 149 441.768 148.979 440.872 148.936L435.752 148.872L431.08 148.936C430.269 148.979 429.117 149 427.624 149C427.538 149 427.496 148.872 427.496 148.616C427.496 148.36 427.538 148.232 427.624 148.232C429.117 148.232 430.205 148.125 430.888 147.912C431.57 147.699 432.04 147.293 432.296 146.696C432.552 146.056 432.68 145.096 432.68 143.816V128.84C431.058 128.84 429.757 129.075 428.776 129.544C427.794 129.971 426.792 130.803 425.768 132.04C424.744 133.277 423.314 135.347 421.48 138.248C419.218 141.789 417.554 144.307 416.488 145.8C415.464 147.251 414.738 148.147 414.312 148.488C413.928 148.829 413.48 149 412.968 149H403.112C402.984 149 402.92 148.872 402.92 148.616C402.92 148.36 402.984 148.232 403.112 148.232C404.264 148.189 405.33 147.805 406.312 147.08C407.293 146.355 408.253 145.395 409.192 144.2C410.13 142.963 411.496 141.043 413.288 138.44L414.248 136.968C415.826 134.621 417.149 132.829 418.216 131.592C419.325 130.355 420.413 129.459 421.48 128.904C422.546 128.349 423.826 127.987 425.32 127.816L416.488 116.936C414.568 114.589 412.562 112.819 410.472 111.624C408.424 110.387 406.333 109.768 404.2 109.768C404.114 109.768 404.072 109.64 404.072 109.384C404.072 109.128 404.114 109 404.2 109L406.952 109.064C408.744 109.149 410.472 109.192 412.136 109.192C413.416 109.192 415.165 109.149 417.384 109.064L421.608 109C421.693 109 421.736 109.128 421.736 109.384C421.736 109.64 421.693 109.768 421.608 109.768C420.37 109.768 419.432 110.045 418.792 110.6C418.194 111.112 417.896 111.837 417.896 112.776C417.896 114.44 418.856 116.637 420.776 119.368L426.792 127.688H428.328C430.077 127.688 431.528 127.709 432.68 127.752V114.184C432.68 112.904 432.552 111.965 432.296 111.368C432.04 110.771 431.57 110.365 430.888 110.152C430.205 109.896 429.138 109.768 427.688 109.768C427.602 109.768 427.56 109.64 427.56 109.384C427.56 109.128 427.602 109 427.688 109L431.208 109.064C433.085 109.149 434.6 109.192 435.752 109.192C437.074 109.192 438.802 109.149 440.936 109.064L444.584 109C444.669 109 444.712 109.128 444.712 109.384C444.712 109.64 444.669 109.768 444.584 109.768C443.133 109.768 442.066 109.896 441.384 110.152C440.701 110.408 440.232 110.856 439.976 111.496C439.72 112.093 439.592 113.032 439.592 114.312V127.752C440.701 127.709 442.152 127.688 443.944 127.688H445.48L451.304 119.688C453.309 116.915 454.312 114.611 454.312 112.776C454.312 111.837 454.013 111.112 453.416 110.6C452.818 110.045 451.922 109.768 450.728 109.768C450.6 109.768 450.536 109.64 450.536 109.384C450.536 109.128 450.6 109 450.728 109L454.888 109.064C457.106 109.149 458.856 109.192 460.136 109.192C461.8 109.192 463.528 109.149 465.32 109.064L468.072 109C468.157 109 468.2 109.128 468.2 109.384C468.2 109.64 468.157 109.768 468.072 109.768C465.938 109.768 463.826 110.387 461.736 111.624C459.688 112.819 457.704 114.589 455.784 116.936L446.952 127.816C448.488 127.987 449.768 128.349 450.792 128.904C451.858 129.459 452.925 130.355 453.992 131.592C455.058 132.787 456.402 134.579 458.024 136.968L458.984 138.44C460.776 141.043 462.141 142.963 463.08 144.2C464.018 145.395 464.978 146.355 465.96 147.08C466.941 147.805 468.008 148.189 469.16 148.232ZM500.307 138.824C500.307 138.739 500.392 138.696 500.563 138.696C500.691 138.696 500.797 138.739 500.883 138.824C501.011 138.867 501.075 138.909 501.075 138.952C500.648 142.28 500.435 145.309 500.435 148.04C500.435 148.381 500.371 148.637 500.243 148.808C500.115 148.936 499.859 149 499.475 149H471.187C471.059 149 470.995 148.872 470.995 148.616C470.995 148.36 471.059 148.232 471.187 148.232C472.552 148.232 473.533 148.125 474.131 147.912C474.771 147.699 475.197 147.293 475.411 146.696C475.624 146.056 475.731 145.096 475.731 143.816V114.184C475.731 112.904 475.624 111.965 475.411 111.368C475.197 110.771 474.771 110.365 474.131 110.152C473.491 109.896 472.509 109.768 471.187 109.768C471.059 109.768 470.995 109.64 470.995 109.384C470.995 109.128 471.059 109 471.187 109H498.323C498.749 109 498.963 109.192 498.963 109.576L499.091 118.088C499.091 118.173 498.963 118.237 498.707 118.28C498.493 118.323 498.365 118.28 498.323 118.152C497.64 115.677 496.488 113.843 494.867 112.648C493.245 111.453 491.112 110.856 488.467 110.856H486.547C485.267 110.856 484.328 111.133 483.731 111.688C483.133 112.243 482.835 113.096 482.835 114.248V127.304H488.147C490.621 127.304 492.52 126.877 493.843 126.024C495.165 125.171 495.827 123.976 495.827 122.44C495.827 122.312 495.933 122.248 496.147 122.248C496.403 122.248 496.531 122.312 496.531 122.44L496.467 128.2L496.531 131.272C496.616 132.723 496.659 133.875 496.659 134.728C496.659 134.813 496.531 134.856 496.275 134.856C496.019 134.856 495.891 134.813 495.891 134.728C495.891 132.979 495.208 131.613 493.843 130.632C492.52 129.608 490.6 129.096 488.083 129.096H482.835V143.56C482.835 144.797 483.069 145.715 483.539 146.312C484.008 146.909 484.755 147.208 485.779 147.208H487.891C491.219 147.208 493.885 146.525 495.891 145.16C497.896 143.795 499.368 141.683 500.307 138.824ZM557.187 148.232C557.272 148.232 557.315 148.36 557.315 148.616C557.315 148.872 557.272 149 557.187 149C555.736 149 554.584 148.979 553.731 148.936L548.995 148.872L544.195 148.936C543.384 148.979 542.275 149 540.867 149C540.739 149 540.675 148.872 540.675 148.616C540.675 148.36 540.739 148.232 540.867 148.232C542.659 148.232 543.875 148.019 544.515 147.592C545.155 147.165 545.475 146.269 545.475 144.904L545.411 143.816L544.067 117.64L530.883 148.552C530.798 148.723 530.627 148.808 530.371 148.808C530.115 148.808 529.944 148.723 529.859 148.552L513.667 117.768L513.155 140.872C513.112 143.176 513.56 144.989 514.499 146.312C515.48 147.592 516.846 148.232 518.595 148.232C518.723 148.232 518.787 148.36 518.787 148.616C518.787 148.872 518.723 149 518.595 149C517.443 149 516.547 148.979 515.907 148.936L512.387 148.872L508.355 148.936C507.672 148.979 506.755 149 505.603 149C505.475 149 505.411 148.872 505.411 148.616C505.411 148.36 505.475 148.232 505.603 148.232C507.352 148.232 508.739 147.571 509.763 146.248C510.787 144.925 511.32 143.133 511.363 140.872L511.939 114.376L511.875 114.312C511.022 112.733 510.126 111.581 509.187 110.856C508.291 110.131 507.246 109.768 506.051 109.768C505.923 109.768 505.859 109.64 505.859 109.384C505.859 109.128 505.923 109 506.051 109L509.059 109.064C509.656 109.107 510.424 109.128 511.363 109.128L514.755 109.064C515.139 109.021 515.63 109 516.227 109C516.782 109 517.208 109.192 517.507 109.576C517.806 109.96 518.36 110.877 519.171 112.328L533.123 138.504L545.283 110.6C545.539 110.003 545.795 109.597 546.051 109.384C546.35 109.128 546.734 109 547.203 109C547.587 109 548.014 109.021 548.483 109.064C548.995 109.107 549.571 109.128 550.211 109.128L553.987 109.064C554.584 109.021 555.438 109 556.547 109C556.675 109 556.739 109.128 556.739 109.384C556.739 109.64 556.675 109.768 556.547 109.768C554.542 109.768 553.091 110.173 552.195 110.984C551.299 111.795 550.894 113.053 550.979 114.76L552.515 143.816C552.6 145.139 552.75 146.099 552.963 146.696C553.219 147.293 553.646 147.699 554.243 147.912C554.883 148.125 555.864 148.232 557.187 148.232ZM582.174 149.768C578.206 149.768 574.665 148.851 571.55 147.016C568.478 145.139 566.089 142.621 564.382 139.464C562.718 136.264 561.886 132.787 561.886 129.032C561.886 124.637 562.995 120.883 565.214 117.768C567.433 114.611 570.27 112.243 573.726 110.664C577.225 109.085 580.787 108.296 584.414 108.296C588.467 108.296 592.03 109.256 595.102 111.176C598.174 113.053 600.521 115.549 602.142 118.664C603.806 121.779 604.638 125.085 604.638 128.584C604.638 132.467 603.614 136.029 601.566 139.272C599.518 142.515 596.766 145.075 593.31 146.952C589.897 148.829 586.185 149.768 582.174 149.768ZM584.286 148.168C586.675 148.168 588.809 147.485 590.686 146.12C592.606 144.712 594.099 142.685 595.166 140.04C596.233 137.352 596.766 134.152 596.766 130.44C596.766 126.515 596.169 123.016 594.974 119.944C593.779 116.829 592.051 114.397 589.79 112.648C587.529 110.899 584.883 110.024 581.854 110.024C577.971 110.024 574.985 111.496 572.894 114.44C570.803 117.341 569.758 121.416 569.758 126.664C569.758 130.803 570.377 134.515 571.614 137.8C572.894 141.043 574.622 143.581 576.798 145.416C579.017 147.251 581.513 148.168 584.286 148.168ZM611.654 109.64C611.569 109.341 612.017 109.128 612.998 109C613.979 108.829 615.025 108.744 616.134 108.744C617.243 108.744 618.289 108.829 619.27 109C620.294 109.128 620.763 109.341 620.678 109.64C619.739 112.883 619.035 116.424 618.566 120.264C618.139 124.104 617.691 128.968 617.222 134.856C617.222 135.283 617.179 135.965 617.094 136.904C617.094 136.989 616.966 137.075 616.71 137.16C616.497 137.203 616.262 137.224 616.006 137.224C615.75 137.224 615.494 137.203 615.238 137.16C615.025 137.075 614.918 136.989 614.918 136.904C614.534 130.589 614.129 125.363 613.702 121.224C613.275 117.043 612.593 113.181 611.654 109.64ZM615.75 149.704C614.555 149.704 613.595 149.363 612.87 148.68C612.187 147.955 611.846 146.995 611.846 145.8C611.846 144.691 612.187 143.795 612.87 143.112C613.595 142.429 614.555 142.088 615.75 142.088C616.945 142.088 617.862 142.429 618.502 143.112C619.185 143.752 619.526 144.648 619.526 145.8C619.526 147.037 619.185 147.997 618.502 148.68C617.862 149.363 616.945 149.704 615.75 149.704ZM56.944 194.296C58.8214 194.296 60.784 194.467 62.832 194.808C64.88 195.107 66.48 195.512 67.632 196.024C68.016 196.152 68.2507 196.323 68.336 196.536C68.464 196.707 68.5707 197.027 68.656 197.496L69.424 206.392C69.424 206.52 69.3174 206.605 69.104 206.648C68.8907 206.691 68.7627 206.627 68.72 206.456C67.2694 203.085 65.328 200.483 62.896 198.648C60.464 196.813 57.648 195.896 54.448 195.896C50.224 195.896 46.96 197.453 44.656 200.568C42.352 203.683 41.2 207.864 41.2 213.112C41.2 217.037 41.8187 220.621 43.056 223.864C44.336 227.107 46.1067 229.688 48.368 231.608C50.672 233.485 53.2747 234.424 56.176 234.424C58.9067 234.424 61.3387 233.528 63.472 231.736C65.648 229.901 67.5894 227.128 69.296 223.416C69.3387 223.245 69.4667 223.181 69.68 223.224C69.936 223.267 70.064 223.352 70.064 223.48L69.104 232.184C69.0187 232.696 68.912 233.037 68.784 233.208C68.6987 233.336 68.464 233.485 68.08 233.656C64.2827 235.064 60.3787 235.768 56.368 235.768C51.1627 235.768 46.8107 234.744 43.312 232.696C39.8134 230.605 37.232 227.981 35.568 224.824C33.9467 221.624 33.136 218.296 33.136 214.84C33.136 210.787 34.224 207.203 36.4 204.088C38.6187 200.973 41.5414 198.563 45.168 196.856C48.8374 195.149 52.7627 194.296 56.944 194.296ZM77.1005 235.768C75.9059 235.768 74.9459 235.491 74.2205 234.936C73.5379 234.381 73.1965 233.571 73.1965 232.504C73.1965 231.48 73.4952 230.733 74.0925 230.264C74.7325 229.795 75.5219 229.56 76.4605 229.56H77.8045C80.1085 229.56 82.0712 228.152 83.6925 225.336C85.3565 222.52 86.5939 218.979 87.4045 214.712C88.2152 210.403 88.6205 206.093 88.6205 201.784C88.6205 199.565 88.1939 198.008 87.3405 197.112C86.4872 196.216 84.8232 195.768 82.3485 195.768C82.2205 195.768 82.1565 195.64 82.1565 195.384C82.1565 195.128 82.2205 195 82.3485 195H114.733C114.818 195 114.861 195.128 114.861 195.384C114.861 195.64 114.818 195.768 114.733 195.768C113.282 195.768 112.194 195.896 111.469 196.152C110.786 196.365 110.317 196.771 110.061 197.368C109.847 197.965 109.741 198.904 109.741 200.184V229.816C109.741 231.096 109.847 232.056 110.061 232.696C110.317 233.293 110.786 233.699 111.469 233.912C112.151 234.125 113.239 234.232 114.733 234.232C114.818 234.232 114.861 234.36 114.861 234.616C114.861 234.872 114.818 235 114.733 235C113.282 235 112.13 234.979 111.277 234.936L106.541 234.872L101.293 234.936C100.439 234.979 99.2232 235 97.6445 235C97.5592 235 97.5165 234.872 97.5165 234.616C97.5165 234.36 97.5592 234.232 97.6445 234.232C99.1379 234.232 100.205 234.125 100.845 233.912C101.527 233.699 101.975 233.293 102.189 232.696C102.445 232.099 102.573 231.139 102.573 229.816V200.952C102.573 199.501 102.509 198.541 102.381 198.072C102.295 197.603 102.061 197.304 101.677 197.176C101.293 197.048 100.525 196.984 99.3725 196.984H95.1485C93.8685 196.984 92.9085 197.091 92.2685 197.304C91.6285 197.517 91.1592 197.965 90.8605 198.648C90.6045 199.288 90.4765 200.333 90.4765 201.784C90.4765 206.307 90.0925 211.149 89.3245 216.312C88.5992 221.475 87.2339 226.019 85.2285 229.944C83.2659 233.827 80.5565 235.768 77.1005 235.768ZM162.638 234.232C162.851 234.232 162.958 234.36 162.958 234.616C162.958 234.872 162.851 235 162.638 235C161.785 235 160.462 234.957 158.67 234.872C156.793 234.787 155.449 234.744 154.638 234.744C153.571 234.744 152.27 234.787 150.734 234.872C149.283 234.957 148.131 235 147.278 235C147.107 235 147.022 234.872 147.022 234.616C147.022 234.36 147.107 234.232 147.278 234.232C148.387 234.232 149.177 234.125 149.646 233.912C150.158 233.656 150.414 233.229 150.414 232.632C150.414 231.907 149.987 230.691 149.134 228.984L142.478 215.864H131.086L126.542 225.912C125.987 227.149 125.71 228.301 125.71 229.368C125.71 230.904 126.243 232.099 127.31 232.952C128.419 233.805 129.891 234.232 131.726 234.232C131.939 234.232 132.046 234.36 132.046 234.616C132.046 234.872 131.939 235 131.726 235C130.958 235 129.849 234.957 128.398 234.872C126.777 234.787 125.369 234.744 124.174 234.744C123.022 234.744 121.635 234.787 120.014 234.872C118.563 234.957 117.39 235 116.494 235C116.323 235 116.238 234.872 116.238 234.616C116.238 234.36 116.323 234.232 116.494 234.232C117.689 234.232 118.691 233.997 119.502 233.528C120.313 233.016 121.123 232.141 121.934 230.904C122.745 229.624 123.705 227.747 124.814 225.272L138.702 194.744C138.787 194.616 138.979 194.552 139.278 194.552C139.619 194.552 139.811 194.616 139.854 194.744L155.854 226.232C157.347 229.261 158.585 231.352 159.566 232.504C160.547 233.656 161.571 234.232 162.638 234.232ZM131.918 214.072H141.582L136.462 203.96L131.918 214.072ZM185.603 212.536C189.187 212.963 192.024 214.157 194.115 216.12C196.248 218.083 197.315 220.515 197.315 223.416C197.315 225.635 196.675 227.64 195.395 229.432C194.115 231.224 192.344 232.653 190.083 233.72C187.821 234.744 185.304 235.256 182.531 235.256C181.336 235.256 179.971 235.192 178.435 235.064C177.837 235.021 177.091 234.979 176.195 234.936C175.341 234.893 174.381 234.872 173.315 234.872L168.643 234.936C167.789 234.979 166.637 235 165.187 235C165.059 235 164.995 234.872 164.995 234.616C164.995 234.36 165.059 234.232 165.187 234.232C166.424 234.232 167.363 234.125 168.003 233.912C168.643 233.656 169.091 233.229 169.347 232.632C169.645 231.992 169.795 231.053 169.795 229.816V200.184C169.795 198.392 169.496 197.219 168.899 196.664C168.301 196.067 167.085 195.768 165.251 195.768C165.165 195.768 165.123 195.64 165.123 195.384C165.123 195.128 165.165 195 165.251 195L168.643 195.064C170.605 195.149 172.163 195.192 173.315 195.192C174.509 195.192 175.747 195.128 177.027 195C177.453 194.957 178.093 194.915 178.947 194.872C179.8 194.829 180.547 194.808 181.187 194.808C185.069 194.808 188.077 195.512 190.211 196.92C192.344 198.328 193.411 200.376 193.411 203.064C193.411 205.112 192.728 206.968 191.363 208.632C190.04 210.296 188.12 211.597 185.603 212.536ZM180.227 196.216C178.989 196.216 178.136 196.515 177.667 197.112C177.197 197.667 176.963 198.733 176.963 200.312V212.472L179.523 212.536C181.741 212.536 183.448 211.704 184.643 210.04C185.837 208.376 186.435 206.243 186.435 203.64C186.435 201.208 185.901 199.373 184.835 198.136C183.768 196.856 182.232 196.216 180.227 196.216ZM181.443 233.656C187.032 233.656 189.827 230.755 189.827 224.952C189.827 221.667 189.037 219.064 187.459 217.144C185.88 215.224 183.491 214.264 180.291 214.264C179.053 214.264 177.944 214.307 176.963 214.392V229.816C176.963 231.224 177.24 232.227 177.795 232.824C178.349 233.379 179.565 233.656 181.443 233.656ZM246.513 234.232C246.726 234.232 246.833 234.36 246.833 234.616C246.833 234.872 246.726 235 246.513 235C245.66 235 244.337 234.957 242.545 234.872C240.668 234.787 239.324 234.744 238.513 234.744C237.446 234.744 236.145 234.787 234.609 234.872C233.158 234.957 232.006 235 231.153 235C230.982 235 230.897 234.872 230.897 234.616C230.897 234.36 230.982 234.232 231.153 234.232C232.262 234.232 233.052 234.125 233.521 233.912C234.033 233.656 234.289 233.229 234.289 232.632C234.289 231.907 233.862 230.691 233.009 228.984L226.353 215.864H214.961L210.417 225.912C209.862 227.149 209.585 228.301 209.585 229.368C209.585 230.904 210.118 232.099 211.185 232.952C212.294 233.805 213.766 234.232 215.601 234.232C215.814 234.232 215.921 234.36 215.921 234.616C215.921 234.872 215.814 235 215.601 235C214.833 235 213.724 234.957 212.273 234.872C210.652 234.787 209.244 234.744 208.049 234.744C206.897 234.744 205.51 234.787 203.889 234.872C202.438 234.957 201.265 235 200.369 235C200.198 235 200.113 234.872 200.113 234.616C200.113 234.36 200.198 234.232 200.369 234.232C201.564 234.232 202.566 233.997 203.377 233.528C204.188 233.016 204.998 232.141 205.809 230.904C206.62 229.624 207.58 227.747 208.689 225.272L222.577 194.744C222.662 194.616 222.854 194.552 223.153 194.552C223.494 194.552 223.686 194.616 223.729 194.744L239.729 226.232C241.222 229.261 242.46 231.352 243.441 232.504C244.422 233.656 245.446 234.232 246.513 234.232ZM215.793 214.072H225.457L220.337 203.96L215.793 214.072ZM301.758 195C301.886 195 301.95 195.128 301.95 195.384C301.95 195.64 301.886 195.768 301.758 195.768C300.52 195.768 299.219 196.344 297.854 197.496C296.531 198.605 295.486 200.035 294.718 201.784L282.686 229.752C281.747 231.971 280.744 233.528 279.678 234.424C278.611 235.32 277.182 235.768 275.39 235.768C273.64 235.768 272.232 235.384 271.166 234.616C270.099 233.848 269.566 232.845 269.566 231.608C269.566 230.712 269.864 229.944 270.462 229.304C271.059 228.621 271.891 228.28 272.958 228.28C273.982 228.28 274.728 228.557 275.198 229.112C275.667 229.624 276.072 230.349 276.414 231.288C276.67 231.885 276.904 232.355 277.118 232.696C277.374 232.995 277.694 233.144 278.078 233.144C278.504 233.144 278.931 232.909 279.358 232.44C279.784 231.928 280.275 231.053 280.83 229.816L281.79 227.576L267.774 200.312C266.878 198.605 266.067 197.432 265.342 196.792C264.659 196.109 263.699 195.768 262.462 195.768C262.376 195.768 262.334 195.64 262.334 195.384C262.334 195.128 262.376 195 262.462 195C263.4 195 264.062 195.021 264.446 195.064C265.726 195.149 267.39 195.192 269.438 195.192C272.467 195.192 274.963 195.149 276.926 195.064C277.48 195.021 278.142 195 278.91 195C278.995 195 279.038 195.128 279.038 195.384C279.038 195.64 278.995 195.768 278.91 195.768C276.264 195.768 274.942 196.429 274.942 197.752C274.942 198.264 275.134 198.904 275.518 199.672L285.246 219.512L292.798 201.784C293.182 200.888 293.374 200.056 293.374 199.288C293.374 198.221 292.968 197.368 292.158 196.728C291.39 196.088 290.302 195.768 288.894 195.768C288.808 195.768 288.766 195.64 288.766 195.384C288.766 195.128 288.808 195 288.894 195L291.774 195.064C293.395 195.149 294.846 195.192 296.126 195.192C297.064 195.192 298.046 195.149 299.07 195.064L301.758 195ZM344.702 234.232C344.83 234.232 344.894 234.36 344.894 234.616C344.894 234.872 344.83 235 344.702 235H334.846C334.291 235 333.779 234.829 333.31 234.488C332.883 234.147 332.115 233.272 331.006 231.864C329.896 230.413 328.083 227.875 325.566 224.248L323.838 221.816C322.344 219.64 321.235 218.125 320.51 217.272C319.784 216.376 319.016 215.757 318.206 215.416C317.438 215.032 316.414 214.84 315.134 214.84V229.816C315.134 231.096 315.24 232.056 315.454 232.696C315.71 233.293 316.179 233.699 316.862 233.912C317.544 234.125 318.611 234.232 320.062 234.232C320.19 234.232 320.254 234.36 320.254 234.616C320.254 234.872 320.19 235 320.062 235C318.568 235 317.374 234.979 316.478 234.936L311.166 234.872L306.494 234.936C305.64 234.979 304.488 235 303.038 235C302.91 235 302.846 234.872 302.846 234.616C302.846 234.36 302.91 234.232 303.038 234.232C304.488 234.232 305.555 234.125 306.238 233.912C306.92 233.699 307.39 233.293 307.646 232.696C307.902 232.056 308.03 231.096 308.03 229.816V200.184C308.03 198.904 307.902 197.965 307.646 197.368C307.39 196.771 306.92 196.365 306.238 196.152C305.598 195.896 304.552 195.768 303.102 195.768C302.974 195.768 302.91 195.64 302.91 195.384C302.91 195.128 302.974 195 303.102 195L306.494 195.064C308.456 195.149 310.014 195.192 311.166 195.192C312.616 195.192 314.408 195.149 316.542 195.064L320.062 195C320.19 195 320.254 195.128 320.254 195.384C320.254 195.64 320.19 195.768 320.062 195.768C318.654 195.768 317.608 195.896 316.926 196.152C316.243 196.408 315.774 196.856 315.518 197.496C315.262 198.093 315.134 199.032 315.134 200.312V213.752C316.286 213.709 317.736 213.688 319.486 213.688L326.206 204.472C327.955 202.04 328.83 200.013 328.83 198.392C328.83 197.581 328.595 196.941 328.126 196.472C327.656 196.003 327.016 195.768 326.206 195.768C326.12 195.768 326.078 195.64 326.078 195.384C326.078 195.128 326.12 195 326.206 195L329.15 195.064C331.027 195.149 332.691 195.192 334.142 195.192C335.806 195.192 337.534 195.149 339.326 195.064L342.078 195C342.206 195 342.27 195.128 342.27 195.384C342.27 195.64 342.206 195.768 342.078 195.768C340.2 195.768 338.088 196.451 335.742 197.816C333.395 199.181 331.411 200.888 329.79 202.936L321.086 213.752C322.75 213.837 324.115 214.157 325.182 214.712C326.248 215.224 327.294 216.056 328.318 217.208C329.384 218.36 330.878 220.28 332.798 222.968L333.95 224.568C335.742 227.043 337.128 228.899 338.11 230.136C339.134 231.373 340.179 232.355 341.246 233.08C342.312 233.805 343.464 234.189 344.702 234.232ZM357.949 229.56C357.949 230.925 358.098 231.928 358.397 232.568C358.696 233.165 359.25 233.592 360.061 233.848C360.914 234.104 362.258 234.232 364.093 234.232C364.221 234.232 364.285 234.36 364.285 234.616C364.285 234.872 364.221 235 364.093 235C362.344 235 360.978 234.979 359.997 234.936L354.429 234.872L349.757 234.936C348.904 234.979 347.752 235 346.301 235C346.173 235 346.109 234.872 346.109 234.616C346.109 234.36 346.173 234.232 346.301 234.232C347.666 234.232 348.648 234.125 349.245 233.912C349.885 233.699 350.312 233.293 350.525 232.696C350.738 232.056 350.845 231.096 350.845 229.816V200.184C350.845 198.904 350.738 197.965 350.525 197.368C350.312 196.771 349.885 196.365 349.245 196.152C348.605 195.896 347.624 195.768 346.301 195.768C346.173 195.768 346.109 195.64 346.109 195.384C346.109 195.128 346.173 195 346.301 195L349.693 195.064C351.656 195.149 353.213 195.192 354.365 195.192C355.389 195.192 356.605 195.128 358.013 195C358.568 194.957 359.272 194.915 360.125 194.872C360.978 194.829 361.96 194.808 363.069 194.808C367.421 194.808 370.856 195.725 373.373 197.56C375.89 199.352 377.149 202.147 377.149 205.944C377.149 208.589 376.466 210.829 375.101 212.664C373.736 214.499 371.965 215.885 369.789 216.824C367.656 217.763 365.458 218.232 363.197 218.232C362.045 218.232 361.042 218.125 360.189 217.912C360.104 217.912 360.061 217.805 360.061 217.592C360.061 217.464 360.082 217.336 360.125 217.208C360.21 217.08 360.296 217.037 360.381 217.08C361.021 217.251 361.746 217.336 362.557 217.336C364.52 217.336 366.141 216.419 367.421 214.584C368.744 212.749 369.405 210.147 369.405 206.776C369.405 203.405 368.68 200.803 367.229 198.968C365.821 197.133 363.752 196.216 361.021 196.216C359.826 196.216 359.016 196.493 358.589 197.048C358.162 197.603 357.949 198.691 357.949 200.312V229.56ZM421.701 234.232C421.914 234.232 422.021 234.36 422.021 234.616C422.021 234.872 421.914 235 421.701 235C420.847 235 419.525 234.957 417.733 234.872C415.855 234.787 414.511 234.744 413.701 234.744C412.634 234.744 411.333 234.787 409.797 234.872C408.346 234.957 407.194 235 406.341 235C406.17 235 406.085 234.872 406.085 234.616C406.085 234.36 406.17 234.232 406.341 234.232C407.45 234.232 408.239 234.125 408.709 233.912C409.221 233.656 409.477 233.229 409.477 232.632C409.477 231.907 409.05 230.691 408.197 228.984L401.541 215.864H390.149L385.605 225.912C385.05 227.149 384.773 228.301 384.773 229.368C384.773 230.904 385.306 232.099 386.373 232.952C387.482 233.805 388.954 234.232 390.789 234.232C391.002 234.232 391.109 234.36 391.109 234.616C391.109 234.872 391.002 235 390.789 235C390.021 235 388.911 234.957 387.461 234.872C385.839 234.787 384.431 234.744 383.237 234.744C382.085 234.744 380.698 234.787 379.077 234.872C377.626 234.957 376.453 235 375.557 235C375.386 235 375.301 234.872 375.301 234.616C375.301 234.36 375.386 234.232 375.557 234.232C376.751 234.232 377.754 233.997 378.565 233.528C379.375 233.016 380.186 232.141 380.997 230.904C381.807 229.624 382.767 227.747 383.877 225.272L397.765 194.744C397.85 194.616 398.042 194.552 398.341 194.552C398.682 194.552 398.874 194.616 398.917 194.744L414.917 226.232C416.41 229.261 417.647 231.352 418.629 232.504C419.61 233.656 420.634 234.232 421.701 234.232ZM390.981 214.072H400.645L395.525 203.96L390.981 214.072ZM427.705 190.008C426.596 190.008 425.721 189.709 425.081 189.112C424.484 188.472 424.185 187.597 424.185 186.488C424.185 185.464 424.505 184.653 425.145 184.056C425.785 183.459 426.638 183.16 427.705 183.16C428.772 183.16 429.604 183.459 430.201 184.056C430.798 184.653 431.097 185.464 431.097 186.488C431.097 187.597 430.798 188.472 430.201 189.112C429.604 189.709 428.772 190.008 427.705 190.008ZM437.433 190.008C436.366 190.008 435.534 189.709 434.937 189.112C434.34 188.472 434.041 187.597 434.041 186.488C434.041 185.464 434.34 184.675 434.937 184.12C435.534 183.523 436.366 183.224 437.433 183.224C438.5 183.224 439.31 183.523 439.865 184.12C440.462 184.675 440.761 185.464 440.761 186.488C440.761 187.597 440.462 188.472 439.865 189.112C439.31 189.709 438.5 190.008 437.433 190.008ZM436.153 229.816C436.153 231.139 436.26 232.099 436.473 232.696C436.686 233.293 437.092 233.699 437.689 233.912C438.329 234.125 439.332 234.232 440.697 234.232C440.825 234.232 440.889 234.36 440.889 234.616C440.889 234.872 440.825 235 440.697 235C439.289 235 438.18 234.979 437.369 234.936L432.505 234.872L427.769 234.936C426.916 234.979 425.764 235 424.313 235C424.228 235 424.185 234.872 424.185 234.616C424.185 234.36 424.228 234.232 424.313 234.232C425.678 234.232 426.681 234.125 427.321 233.912C427.961 233.699 428.388 233.293 428.601 232.696C428.857 232.056 428.985 231.096 428.985 229.816V200.184C428.985 198.904 428.857 197.965 428.601 197.368C428.388 196.771 427.961 196.365 427.321 196.152C426.681 195.896 425.678 195.768 424.313 195.768C424.228 195.768 424.185 195.64 424.185 195.384C424.185 195.128 424.228 195 424.313 195L427.769 195.064C429.732 195.149 431.31 195.192 432.505 195.192C433.828 195.192 435.47 195.149 437.433 195.064L440.697 195C440.825 195 440.889 195.128 440.889 195.384C440.889 195.64 440.825 195.768 440.697 195.768C439.374 195.768 438.393 195.896 437.753 196.152C437.113 196.408 436.686 196.856 436.473 197.496C436.26 198.093 436.153 199.032 436.153 200.312V229.816ZM490.348 234.232C490.476 234.232 490.54 234.36 490.54 234.616C490.54 234.872 490.476 235 490.348 235C488.855 235 487.66 234.979 486.764 234.936L481.836 234.872L476.076 234.936C475.308 234.979 474.263 235 472.94 235C472.812 235 472.748 234.872 472.748 234.616C472.748 234.36 472.812 234.232 472.94 234.232C474.519 234.232 475.671 234.125 476.396 233.912C477.121 233.699 477.612 233.293 477.868 232.696C478.124 232.099 478.252 231.139 478.252 229.816V215.096H457.58V229.816C457.58 231.096 457.708 232.056 457.964 232.696C458.22 233.293 458.711 233.699 459.436 233.912C460.161 234.125 461.313 234.232 462.892 234.232C462.977 234.232 463.02 234.36 463.02 234.616C463.02 234.872 462.977 235 462.892 235C461.399 235 460.204 234.979 459.308 234.936L453.74 234.872L448.94 234.936C448.087 234.979 446.913 235 445.42 235C445.335 235 445.292 234.872 445.292 234.616C445.292 234.36 445.335 234.232 445.42 234.232C446.913 234.232 448.001 234.125 448.684 233.912C449.367 233.699 449.836 233.293 450.092 232.696C450.348 232.056 450.476 231.096 450.476 229.816V200.184C450.476 198.904 450.348 197.965 450.092 197.368C449.836 196.771 449.367 196.365 448.684 196.152C448.044 195.896 446.999 195.768 445.548 195.768C445.42 195.768 445.356 195.64 445.356 195.384C445.356 195.128 445.42 195 445.548 195L449.004 195.064C450.967 195.149 452.545 195.192 453.74 195.192C455.361 195.192 457.239 195.149 459.372 195.064L462.892 195C462.977 195 463.02 195.128 463.02 195.384C463.02 195.64 462.977 195.768 462.892 195.768C461.356 195.768 460.225 195.896 459.5 196.152C458.775 196.408 458.263 196.856 457.964 197.496C457.708 198.093 457.58 199.032 457.58 200.312V213.304H478.252V200.312C478.252 199.032 478.124 198.093 477.868 197.496C477.612 196.856 477.121 196.408 476.396 196.152C475.671 195.896 474.519 195.768 472.94 195.768C472.812 195.768 472.748 195.64 472.748 195.384C472.748 195.128 472.812 195 472.94 195L476.076 195.064C478.209 195.149 480.129 195.192 481.836 195.192C482.988 195.192 484.631 195.149 486.764 195.064L490.348 195C490.476 195 490.54 195.128 490.54 195.384C490.54 195.64 490.476 195.768 490.348 195.768C488.897 195.768 487.809 195.896 487.084 196.152C486.401 196.365 485.932 196.771 485.676 197.368C485.463 197.965 485.356 198.904 485.356 200.184V229.816C485.356 231.096 485.463 232.056 485.676 232.696C485.932 233.293 486.401 233.699 487.084 233.912C487.767 234.125 488.855 234.232 490.348 234.232ZM506.903 229.816C506.903 231.139 507.01 232.099 507.223 232.696C507.436 233.293 507.842 233.699 508.439 233.912C509.079 234.125 510.082 234.232 511.447 234.232C511.575 234.232 511.639 234.36 511.639 234.616C511.639 234.872 511.575 235 511.447 235C510.039 235 508.93 234.979 508.119 234.936L503.255 234.872L498.519 234.936C497.666 234.979 496.514 235 495.063 235C494.978 235 494.935 234.872 494.935 234.616C494.935 234.36 494.978 234.232 495.063 234.232C496.428 234.232 497.431 234.125 498.071 233.912C498.711 233.699 499.138 233.293 499.351 232.696C499.607 232.056 499.735 231.096 499.735 229.816V200.184C499.735 198.904 499.607 197.965 499.351 197.368C499.138 196.771 498.711 196.365 498.071 196.152C497.431 195.896 496.428 195.768 495.063 195.768C494.978 195.768 494.935 195.64 494.935 195.384C494.935 195.128 494.978 195 495.063 195L498.519 195.064C500.482 195.149 502.06 195.192 503.255 195.192C504.578 195.192 506.22 195.149 508.183 195.064L511.447 195C511.575 195 511.639 195.128 511.639 195.384C511.639 195.64 511.575 195.768 511.447 195.768C510.124 195.768 509.143 195.896 508.503 196.152C507.863 196.408 507.436 196.856 507.223 197.496C507.01 198.093 506.903 199.032 506.903 200.312V229.816ZM518.154 195.64C518.069 195.341 518.517 195.128 519.498 195C520.479 194.829 521.525 194.744 522.634 194.744C523.743 194.744 524.789 194.829 525.77 195C526.794 195.128 527.263 195.341 527.178 195.64C526.239 198.883 525.535 202.424 525.066 206.264C524.639 210.104 524.191 214.968 523.722 220.856C523.722 221.283 523.679 221.965 523.594 222.904C523.594 222.989 523.466 223.075 523.21 223.16C522.997 223.203 522.762 223.224 522.506 223.224C522.25 223.224 521.994 223.203 521.738 223.16C521.525 223.075 521.418 222.989 521.418 222.904C521.034 216.589 520.629 211.363 520.202 207.224C519.775 203.043 519.093 199.181 518.154 195.64ZM522.25 235.704C521.055 235.704 520.095 235.363 519.37 234.68C518.687 233.955 518.346 232.995 518.346 231.8C518.346 230.691 518.687 229.795 519.37 229.112C520.095 228.429 521.055 228.088 522.25 228.088C523.445 228.088 524.362 228.429 525.002 229.112C525.685 229.752 526.026 230.648 526.026 231.8C526.026 233.037 525.685 233.997 525.002 234.68C524.362 235.363 523.445 235.704 522.25 235.704Z" fill="white"/>
<path d="M1.96298 20L14.9624 20.1235L13.9994 121.473L1.00002 121.349L1.96298 20Z" fill="#0092E4"/>
<path d="M1.08133 121L14.0807 121.124L12.9994 234.934L-2.44474e-05 234.81L1.08133 121Z" fill="#FFE600"/>
</svg>
